<?xml version="1.0" standalone="no"?>
<!DOCTYPE svg PUBLIC "-//W3C//DTD SVG 20010904//EN"
 "http://www.w3.org/TR/2001/REC-SVG-20010904/DTD/svg10.dtd">
<svg version="1.0" xmlns="http://www.w3.org/2000/svg"
 width="445.000000pt" height="434.000000pt" viewBox="0 0 445.000000 434.000000"
 preserveAspectRatio="xMidYMid meet">

<g transform="translate(0.000000,434.000000) scale(0.100000,-0.100000)"
fill="#000000" stroke="none">
<path d="M0 2170 l0 -2170 2225 0 2225 0 0 2170 0 2170 -2225 0 -2225 0 0
-2170z m3255 2110 c3 -5 1 -10 -4 -10 -6 0 -11 5 -11 10 0 6 2 10 4 10 3 0 8
-4 11 -10z m66 -67 c13 -15 12 -15 -8 -4 -24 12 -29 21 -14 21 5 0 15 -7 22
-17z m-746 -82 c3 -5 -4 -12 -15 -16 -27 -8 -83 -92 -77 -114 2 -10 0 -26 -6
-36 -8 -16 -11 -14 -23 13 -12 29 -16 31 -76 34 -59 3 -61 4 -35 15 22 10 36
10 69 -2 47 -16 58 -9 58 33 0 26 17 63 34 74 16 11 64 10 71 -1z m795 -38 c0
-5 -5 -15 -10 -23 -8 -12 -10 -11 -10 8 0 12 5 22 10 22 6 0 10 -3 10 -7z m-4
-59 c-3 -9 -6 -18 -6 -20 0 -2 -5 -4 -11 -4 -8 0 -9 4 0 13 6 8 8 17 4 20 -3
4 -1 7 6 7 8 0 11 -6 7 -16z m-706 -68 c0 -3 -4 -8 -10 -11 -5 -3 -10 -1 -10
4 0 6 5 11 10 11 6 0 10 -2 10 -4z m697 -38 c-3 -8 -6 -5 -6 6 -1 11 2 17 5
13 3 -3 4 -12 1 -19z m-1031 -30 c-3 -13 -6 -31 -6 -40 0 -10 -7 -18 -16 -18
-11 0 -14 5 -10 16 3 9 9 27 12 40 3 13 11 24 16 24 6 0 8 -10 4 -22z m-250
-40 c-27 -22 -33 -5 -10 29 16 26 18 26 25 8 5 -14 1 -25 -15 -37z m144 7 c7
-14 10 -28 7 -32 -9 -8 -47 27 -47 44 0 22 26 15 40 -12z m166 -1 c-4 -9 -9
-15 -11 -12 -3 3 -3 13 1 22 4 9 9 15 11 12 3 -3 3 -13 -1 -22z m8 -42 c-6 -4
-14 -19 -18 -34 -3 -16 -13 -28 -20 -28 -8 0 -17 -8 -20 -17 -6 -14 -9 -15
-16 -4 -5 10 1 22 21 38 16 14 29 31 29 38 0 7 6 15 13 18 16 6 24 -2 11 -11z
m63 -29 c0 -21 -7 -47 -14 -58 -13 -19 -14 -18 -7 8 4 16 1 33 -6 42 -15 18
-6 45 14 45 10 0 14 -11 13 -37z m-417 -38 c16 5 17 3 6 -30 -7 -19 -22 -44
-34 -56 -12 -11 -31 -38 -43 -60 -19 -38 -19 -42 -4 -59 10 -11 12 -20 6 -24
-5 -4 -13 -1 -17 6 -5 7 -16 -7 -31 -38 l-23 -49 5 59 c4 43 20 89 58 169 28
61 53 102 55 93 3 -11 10 -15 22 -11z m456 -14 c-9 -16 -16 -37 -16 -46 0 -8
-4 -15 -10 -15 -20 0 -10 61 13 80 29 24 32 19 13 -19z m-76 -31 c0 -5 -10
-14 -21 -21 -12 -6 -19 -7 -17 -2 3 4 8 16 11 26 7 18 27 15 27 -3z m-216 -50
c13 -38 14 -55 6 -71 -18 -32 -6 -45 18 -19 14 15 22 37 22 57 0 19 7 45 17
59 l16 25 15 -33 c9 -22 16 -28 19 -18 14 47 14 46 24 28 7 -13 4 -28 -9 -55
-11 -21 -34 -69 -53 -107 -25 -50 -35 -63 -37 -47 -2 12 2 37 8 57 14 40 5 60
-9 22 -5 -14 -17 -28 -25 -31 -9 -4 -16 -13 -16 -21 0 -23 -36 -39 -60 -26
-15 8 -21 6 -30 -10 -11 -21 -8 -23 28 -20 21 1 22 0 10 -19 -14 -23 -24 -26
-33 -11 -10 16 -25 11 -25 -8 0 -23 -35 -56 -49 -47 -6 3 -11 1 -11 -4 0 -6
-4 -11 -8 -11 -10 0 -8 75 3 109 4 13 18 35 30 50 57 63 65 75 65 89 0 9 3 12
7 9 12 -13 32 15 29 41 -2 15 -1 21 1 15 2 -7 9 -13 14 -13 5 0 9 -8 9 -17 0
-15 2 -16 10 -3 5 8 6 17 2 20 -7 5 -13 60 -7 60 1 0 10 -23 19 -50z m645 13
c-18 -56 -22 -63 -31 -63 -5 0 -4 8 2 19 5 11 14 31 20 45 13 35 21 33 9 -1z
m-488 -65 c-11 -18 -21 -26 -21 -18 0 19 30 63 37 56 3 -3 -4 -20 -16 -38z
m80 19 c-10 -9 -11 -8 -5 6 3 10 9 15 12 12 3 -3 0 -11 -7 -18z m-1835 -24
c-10 -10 -19 5 -10 18 6 11 8 11 12 0 2 -7 1 -15 -2 -18z m1854 7 c0 -5 -5
-10 -11 -10 -5 0 -7 5 -4 10 3 6 8 10 11 10 2 0 4 -4 4 -10z m1281 -17 c-8
-15 -10 -15 -11 -2 0 17 10 32 18 25 2 -3 -1 -13 -7 -23z m-3236 -13 c-3 -5
-15 -15 -26 -21 -19 -10 -20 -9 -9 10 6 12 18 21 26 21 8 0 12 -4 9 -10z
m3231 -52 c-3 -24 -2 -66 2 -95 5 -29 6 -54 2 -55 -3 -2 -14 -21 -24 -43 -9
-22 -14 -29 -11 -15 19 74 27 133 18 139 -5 3 -5 27 0 59 10 62 22 71 13 10z
m-3312 7 c-14 -14 -35 -25 -47 -25 -21 1 -21 2 6 25 15 14 37 25 47 25 17 0
17 -3 -6 -25z m1906 -5 c0 -5 -4 -10 -10 -10 -5 0 -10 5 -10 10 0 6 5 10 10
10 6 0 10 -4 10 -10z m-2060 -91 c0 -6 6 -9 13 -6 6 2 20 0 29 -5 24 -12 7
-48 -30 -66 -24 -11 -29 -10 -44 9 -20 24 -23 39 -8 39 6 0 10 -4 10 -10 0 -5
9 -10 21 -10 29 0 20 34 -10 38 -19 3 -21 6 -10 13 19 12 29 11 29 -2z m2320
-5 c0 -8 -5 -12 -10 -9 -6 4 -8 11 -5 16 9 14 15 11 15 -7z m-350 2 c0 -3 -4
-8 -10 -11 -5 -3 -10 -1 -10 4 0 6 5 11 10 11 6 0 10 -2 10 -4z m44 -12 c3 -8
2 -12 -4 -9 -6 3 -10 1 -10 -6 0 -7 -3 -10 -6 -6 -7 6 2 37 10 37 2 0 7 -7 10
-16z m-362 -94 c-3 -27 -1 -32 13 -26 17 6 45 -9 45 -25 0 -4 -6 -14 -12 -21
-7 -7 -23 -34 -36 -60 -28 -57 -48 -74 -26 -22 8 20 13 41 11 47 -2 7 -9 1
-15 -13 -5 -14 -15 -36 -21 -50 l-11 -25 4 25 c3 14 12 50 21 80 9 30 14 72
11 93 -3 26 -1 37 7 34 7 -2 11 -18 9 -37z m78 14 c0 -3 -7 -12 -15 -20 -12
-13 -15 -13 -15 -1 0 7 3 17 7 20 8 8 23 9 23 1z m-1847 -85 c-15 -23 -29 -37
-31 -31 -4 13 37 72 50 72 5 0 -4 -19 -19 -41z m3613 -8 c-9 -10 -29 -53 -45
-97 -71 -191 -109 -269 -134 -269 -6 0 -16 -10 -22 -22 -5 -13 -13 -23 -17
-23 -9 0 1 27 21 59 13 21 16 21 21 6 5 -13 10 -7 22 24 9 22 13 41 8 41 -4 0
-11 -10 -15 -22 l-8 -23 -4 24 c-4 18 -7 21 -13 10 -5 -7 -12 -11 -15 -7 -3 3
1 13 10 21 8 9 15 23 15 31 0 9 6 16 14 16 8 0 17 12 21 28 7 25 8 25 15 7 6
-15 8 -9 8 20 -1 22 10 81 23 130 22 84 24 87 27 49 2 -24 -5 -63 -17 -93 -10
-28 -17 -51 -15 -51 2 0 18 28 35 63 44 89 73 131 77 111 2 -8 -3 -23 -12 -33z
m-2988 -7 c-3 -14 -5 -12 -10 9 -3 19 -2 25 4 19 6 -6 8 -18 6 -28z m1683 -51
c-11 -21 -45 -63 -37 -47 3 6 10 23 15 38 6 14 15 26 21 26 7 0 8 -6 1 -17z
m1180 -14 c-5 -13 -10 -19 -10 -12 -1 15 10 45 15 40 3 -2 0 -15 -5 -28z
m-1761 -69 c15 24 28 0 23 -40 -4 -30 -2 -40 8 -40 11 0 11 -2 -1 -10 -13 -8
-11 -11 7 -16 13 -4 20 -10 17 -16 -3 -5 -15 -6 -26 -3 -14 5 -21 1 -25 -14
-3 -12 -9 -21 -13 -21 -13 0 -22 -72 -11 -83 8 -8 11 -8 11 1 0 6 9 16 19 22
18 9 19 8 10 -22 -7 -24 -6 -29 3 -20 16 16 28 15 28 -3 0 -9 -11 -20 -25 -25
-14 -5 -25 -16 -25 -25 0 -8 -4 -15 -10 -15 -5 0 -10 7 -10 15 0 8 -4 15 -9
15 -15 0 -23 -35 -15 -65 5 -19 1 -30 -12 -40 -18 -14 -17 -16 6 -19 6 0 9 -5
8 -11 -2 -5 -6 -9 -10 -7 -15 4 -8 -16 7 -22 21 -8 19 -28 -2 -24 -11 2 -18
-3 -18 -12 0 -18 -17 -40 -27 -33 -16 9 -7 198 13 283 11 47 23 96 25 110 18
90 39 162 42 146 3 -14 6 -15 12 -6z m130 5 c0 -8 -7 -15 -15 -15 -26 0 -18
20 13 29 1 1 2 -6 2 -14z m335 -52 c-3 -14 -13 -36 -21 -47 l-14 -20 0 21 c0
12 5 25 10 28 6 3 10 15 10 26 0 10 5 19 11 19 7 0 9 -10 4 -27z m-40 -102
c-4 -9 -12 -28 -17 -43 -11 -31 -33 -39 -23 -9 3 11 1 22 -5 26 -6 3 -10 -3
-10 -14 0 -12 -4 -21 -10 -21 -5 0 -10 7 -10 17 0 15 -2 15 -19 -1 -11 -10
-25 -15 -30 -11 -13 8 -55 -24 -59 -45 -2 -8 -11 -22 -21 -30 -10 -8 -21 -22
-24 -30 -4 -10 -6 -8 -6 7 -1 31 50 112 72 113 9 0 17 4 17 9 0 5 15 12 33 15
17 4 43 15 56 25 28 22 65 17 56 -8z m-340 -46 c0 -29 -20 -28 -21 0 -1 16 3
24 10 22 6 -2 11 -12 11 -22z m45 11 c0 -3 -4 -8 -10 -11 -5 -3 -10 -1 -10 4
0 6 5 11 10 11 6 0 10 -2 10 -4z m-40 -55 c0 -5 -7 -14 -15 -21 -12 -10 -15
-10 -15 2 0 8 3 18 7 21 9 10 23 9 23 -2z m30 -11 c0 -5 -4 -10 -10 -10 -5 0
-10 5 -10 10 0 6 5 10 10 10 6 0 10 -4 10 -10z m319 -29 c-6 -17 -20 -36 -31
-42 -18 -10 -19 -9 -7 13 37 70 58 86 38 29z m-69 -11 c0 -5 -5 -10 -11 -10
-5 0 -7 5 -4 10 3 6 8 10 11 10 2 0 4 -4 4 -10z m123 -10 c-3 -12 -8 -19 -11
-16 -5 6 5 36 12 36 2 0 2 -9 -1 -20z m1172 -2 c-4 -13 -26 -52 -49 -88 -24
-36 -46 -74 -51 -85 -7 -18 -9 -18 -12 -2 -3 9 11 39 29 65 32 44 62 102 58
111 -2 4 21 21 28 21 2 0 0 -10 -3 -22z m-1570 -9 c10 -30 0 -33 -13 -4 -6 14
-7 25 -2 25 5 0 12 -9 15 -21z m-55 -13 c0 -3 -4 -8 -10 -11 -5 -3 -10 -1 -10
4 0 6 5 11 10 11 6 0 10 -2 10 -4z m56 -44 c1 -7 0 -8 -3 -2 -2 5 -9 8 -14 4
-5 -3 -9 0 -9 6 0 15 23 7 26 -8z m-96 -8 c0 -8 -5 -12 -10 -9 -6 4 -8 11 -5
16 9 14 15 11 15 -7z m27 -6 c-3 -8 -6 -5 -6 6 -1 11 2 17 5 13 3 -3 4 -12 1
-19z m182 -8 c-6 -16 -18 -30 -27 -30 -12 0 -13 3 -4 12 7 7 12 20 12 30 0 10
7 18 14 18 12 0 13 -6 5 -30z m-163 -22 c4 -7 3 -8 -5 -4 -7 5 -13 -4 -17 -24
-4 -18 -10 -28 -16 -22 -10 10 7 62 21 62 5 0 13 -5 17 -12z m38 -36 c-4 -19
-14 -34 -26 -38 -30 -9 -35 5 -9 25 13 10 21 23 17 30 -10 15 4 35 15 24 5 -5
6 -23 3 -41z m149 23 c-3 -9 -8 -14 -10 -11 -3 3 -2 9 2 15 9 16 15 13 8 -4z
m137 -29 c0 -3 -4 -8 -10 -11 -5 -3 -10 -1 -10 4 0 6 5 11 10 11 6 0 10 -2 10
-4z m-56 -62 c-14 -22 -25 -34 -23 -29 28 72 34 84 42 76 4 -4 -4 -25 -19 -47z
m76 36 c0 -5 -5 -10 -11 -10 -5 0 -7 5 -4 10 3 6 8 10 11 10 2 0 4 -4 4 -10z
m-138 -22 c-7 -7 -12 -22 -12 -35 0 -13 -4 -23 -10 -23 -5 0 -10 16 -10 35 0
29 4 35 22 35 17 0 19 -3 10 -12z m-232 -62 c0 -25 5 -48 11 -52 8 -4 8 -9 0
-17 -16 -16 -22 -5 -28 57 -4 39 -2 56 6 56 6 0 11 -18 11 -44z m-90 4 c0 -6
11 -21 25 -33 24 -22 30 -44 27 -100 -2 -31 -22 -28 -22 4 0 11 -6 22 -14 25
-8 3 -19 28 -25 55 -13 61 -13 59 -1 59 6 0 10 -5 10 -10z m-1533 -122 c-3 -7
-5 -2 -5 12 0 14 2 19 5 13 2 -7 2 -19 0 -25z m1876 -28 c-3 -11 -7 -20 -9
-20 -2 0 -4 9 -4 20 0 11 4 20 9 20 5 0 7 -9 4 -20z m-873 -15 c8 -10 11 -30
7 -56 -4 -29 -2 -38 6 -31 16 11 187 56 193 50 2 -3 -4 -16 -14 -28 -16 -20
-31 -24 -100 -29 -83 -6 -107 -15 -82 -31 13 -8 12 -10 -3 -10 -24 0 -87 -48
-87 -66 0 -7 -9 -18 -20 -24 -27 -14 -110 -29 -128 -23 -24 10 8 23 58 23 43
0 46 2 69 45 13 24 21 51 18 60 -4 8 -3 15 2 15 5 0 11 -9 14 -20 16 -60 52
23 42 95 -8 47 2 58 25 30z m-632 -81 c-3 -14 -5 -12 -10 9 -3 19 -2 25 4 19
6 -6 8 -18 6 -28z m-24 -49 c5 -36 4 -46 -3 -35 -10 13 -16 99 -7 89 2 -2 6
-26 10 -54z m635 -42 c-17 -21 -31 -33 -42 -33 -8 0 44 49 52 50 2 0 -3 -8
-10 -17z m-555 -19 c3 -8 2 -12 -4 -9 -6 3 -10 10 -10 16 0 14 7 11 14 -7z
m911 -64 c3 -5 -1 -10 -9 -10 -9 0 -16 5 -16 10 0 6 4 10 9 10 6 0 13 -4 16
-10z m191 -158 c-9 -8 -26 10 -26 26 1 15 2 15 15 -2 8 -11 13 -21 11 -24z
m164 18 c0 -5 -7 -10 -15 -10 -8 0 -15 5 -15 10 0 6 7 10 15 10 8 0 15 -4 15
-10z m59 -44 c-9 -8 -10 -8 -5 2 4 7 1 15 -9 18 -14 6 -14 8 2 20 16 11 18 10
21 -8 2 -11 -2 -25 -9 -32z m60 47 c0 -5 -9 -26 -19 -48 l-19 -40 5 35 c3 19
7 41 10 48 4 13 25 17 23 5z m-42 -155 c-3 -8 -6 -5 -6 6 -1 11 2 17 5 13 3
-3 4 -12 1 -19z m652 -141 c10 -31 17 -57 15 -57 -9 0 -44 81 -44 101 0 32 7
21 29 -44z m-1119 32 c0 -5 -4 -9 -10 -9 -5 0 -10 7 -10 16 0 8 5 12 10 9 6
-3 10 -10 10 -16z m700 -108 c0 -6 -10 -17 -22 -25 -29 -21 -51 -3 -22 19 22
16 44 19 44 6z m470 -31 c6 -11 8 -20 6 -20 -3 0 -10 9 -16 20 -6 11 -8 20 -6
20 3 0 10 -9 16 -20z m190 -310 c0 -5 -2 -10 -4 -10 -3 0 -8 5 -11 10 -3 6 -1
10 4 10 6 0 11 -4 11 -10z m896 -55 c-9 -14 -14 -30 -11 -35 3 -6 1 -10 -4
-10 -17 0 -13 31 6 52 23 26 28 22 9 -7z m184 21 c0 -3 -4 -8 -10 -11 -5 -3
-10 -1 -10 4 0 6 5 11 10 11 6 0 10 -2 10 -4z m-2700 -40 c0 -13 -29 -31 -37
-22 -4 4 25 36 33 36 2 0 4 -6 4 -14z m2460 -26 c-24 -15 -36 -11 -14 4 10 8
21 12 24 10 2 -3 -2 -9 -10 -14z m-45 -30 c-3 -5 -11 -10 -16 -10 -6 0 -7 5
-4 10 3 6 11 10 16 10 6 0 7 -4 4 -10z m-2433 -29 c-7 -4 -14 -20 -15 -36 -3
-32 -44 -56 -53 -30 -7 16 24 62 46 68 26 8 36 7 22 -2z m2401 -19 c-3 -12
-11 -22 -19 -22 -7 0 -17 -6 -21 -14 -4 -7 -27 -23 -50 -35 -23 -11 -49 -31
-57 -43 -17 -23 -20 -21 -10 6 6 17 108 96 123 96 6 0 15 9 21 21 14 26 21 21
13 -9z m-2225 -1 c-1 -5 -30 -31 -63 -59 -68 -56 -127 -76 -139 -47 -7 18 0
35 14 35 5 0 7 -7 3 -16 -5 -14 -3 -15 15 -5 11 6 34 23 50 38 45 42 59 52 65
46 3 -2 14 0 24 6 22 13 36 14 31 2z m2436 -6 c-4 -8 -14 -15 -23 -15 -9 0
-26 -3 -38 -6 -14 -4 -23 -2 -23 5 0 6 15 11 34 11 19 0 38 5 41 10 9 15 15
12 9 -5z m206 -51 c0 -20 -7 -17 -20 6 -9 16 -8 18 5 14 8 -4 15 -12 15 -20z
m-2885 -62 c-3 -3 -14 -6 -25 -7 -13 -1 -20 5 -20 17 0 12 4 16 11 12 8 -4 9
0 4 15 -12 40 8 46 22 6 7 -21 11 -41 8 -43z m2925 28 c6 -11 9 -20 7 -20 -2
0 -12 9 -22 20 -10 11 -13 20 -7 20 6 0 16 -9 22 -20z m-2550 -15 c-7 -9 -15
-13 -17 -11 -7 7 7 26 19 26 6 0 6 -6 -2 -15z m-50 -20 c-7 -8 -21 -15 -32
-15 -17 0 -18 3 -8 15 7 8 21 15 32 15 17 0 18 -3 8 -15z m-354 -32 c-7 -25
-25 -106 -26 -116 0 -5 9 -5 20 -2 17 5 20 2 20 -22 1 -43 23 -67 57 -59 18 5
25 4 18 -2 -13 -13 -73 -17 -102 -7 -11 4 -24 17 -27 28 -7 27 24 197 36 197
5 0 7 -8 4 -17z m183 8 c19 -12 7 -39 -23 -51 -14 -5 -43 -26 -66 -46 -24 -22
-45 -33 -50 -28 -5 5 -4 15 3 24 15 18 73 60 84 60 4 0 17 7 28 16 17 13 18
16 5 24 -8 5 -10 10 -5 10 6 0 16 -4 24 -9z m2101 -26 c0 -9 -9 -15 -21 -15
-18 0 -19 2 -9 15 7 8 16 15 21 15 5 0 9 -7 9 -15z m-2245 -24 c-6 -5 -25 10
-25 20 0 5 6 4 14 -3 8 -7 12 -15 11 -17z m1686 -42 c7 -15 6 -17 -6 -13 -15
6 -35 35 -35 50 0 10 30 -17 41 -37z m471 19 c-7 -7 -12 -8 -12 -2 0 14 12 26
19 19 2 -3 -1 -11 -7 -17z m-1992 2 c0 -5 -4 -10 -10 -10 -5 0 -10 5 -10 10 0
6 5 10 10 10 6 0 10 -4 10 -10z m-34 -65 c-3 -8 0 -15 7 -16 7 0 3 -4 -8 -8
-28 -12 -37 -4 -22 19 14 23 32 27 23 5z m1819 -95 c4 -6 -8 -10 -30 -10 -22
0 -34 4 -30 10 3 6 17 10 30 10 13 0 27 -4 30 -10z m-1999 -85 c-11 -8 -22
-12 -25 -9 -6 6 19 24 34 24 6 -1 1 -7 -9 -15z m286 -17 c-6 -6 -15 -8 -19 -4
-4 4 -1 11 7 16 19 12 27 3 12 -12z m-63 -55 c-43 -50 -57 -62 -62 -56 -16 16
42 83 72 83 10 0 7 -8 -10 -27z m932 -83 c5 0 9 -5 9 -11 0 -6 -6 -9 -12 -6
-7 2 -18 -3 -25 -12 -21 -29 -28 15 -7 47 18 27 19 27 22 5 2 -13 8 -23 13
-23z m-1190 -10 c5 0 9 5 9 12 0 6 3 9 6 5 13 -13 -7 -42 -30 -43 -23 -2 -24
0 -13 30 8 22 12 26 15 14 2 -10 8 -18 13 -18z m363 -5 c-4 -8 -8 -15 -10 -15
-2 0 -4 7 -4 15 0 8 4 15 10 15 5 0 7 -7 4 -15z m-424 -39 c0 -3 -4 -8 -10
-11 -5 -3 -10 -1 -10 4 0 6 5 11 10 11 6 0 10 -2 10 -4z m1220 -26 c0 -16 -4
-30 -8 -30 -5 0 -7 14 -4 30 2 17 6 30 8 30 2 0 4 -13 4 -30z m10 -61 c0 -6
-4 -7 -10 -4 -5 3 -10 11 -10 16 0 6 5 7 10 4 6 -3 10 -11 10 -16z m-141 -44
l0 -20 -9 20 c-5 11 -9 27 -9 35 -1 13 0 13 9 0 5 -8 9 -24 9 -35z m73 -137
c-9 -9 -12 -7 -12 12 0 19 3 21 12 12 9 -9 9 -15 0 -24z m-1226 -78 c-27 -42
-34 -62 -14 -42 14 14 28 16 28 3 0 -21 -39 -22 -59 -2 -19 19 -19 21 -4 21
20 0 63 46 64 69 0 11 2 12 6 3 3 -7 -7 -31 -21 -52z"/>
<path d="M2277 3673 c-4 -3 -7 -11 -7 -17 0 -6 5 -5 12 2 6 6 9 14 7 17 -3 3
-9 2 -12 -2z"/>
<path d="M2266 3604 c-8 -21 -8 -21 8 -27 19 -8 28 19 12 33 -10 8 -15 7 -20
-6z"/>
<path d="M2157 3603 c-4 -3 -7 -11 -7 -17 0 -6 5 -5 12 2 6 6 9 14 7 17 -3 3
-9 2 -12 -2z"/>
<path d="M3626 2993 c-6 -14 -5 -15 5 -6 7 7 10 15 7 18 -3 3 -9 -2 -12 -12z"/>
<path d="M1367 1046 c-10 -8 -14 -17 -9 -20 5 -3 17 3 27 14 21 23 9 26 -18 6z"/>
<path d="M1180 776 c0 -9 5 -16 10 -16 6 0 10 4 10 9 0 6 -4 13 -10 16 -5 3
-10 -1 -10 -9z"/>
</g>
</svg>
