<?xml version="1.0" standalone="no"?>
<!DOCTYPE svg PUBLIC "-//W3C//DTD SVG 20010904//EN"
 "http://www.w3.org/TR/2001/REC-SVG-20010904/DTD/svg10.dtd">
<svg version="1.0" xmlns="http://www.w3.org/2000/svg"
 width="2500" height="2500"  viewBox="0 0 512.000000 512.000000"
 preserveAspectRatio="xMidYMid meet">

<g transform="translate(0.000000,512.000000) scale(0.100000,-0.100000)"
fill="#000000" stroke="none">
<path d="M750 5111 c-80 -25 -147 -80 -187 -154 -17 -30 -18 -154 -18 -2397 0
-2243 1 -2367 18 -2397 30 -55 78 -103 131 -131 l51 -27 1815 0 1815 0 51 27
c29 15 68 46 87 69 72 84 67 -65 67 1929 0 1699 -1 1798 -17 1813 -33 29 -68
31 -99 4 l-29 -25 -5 -1794 c-5 -1656 -6 -1796 -22 -1819 -40 -62 8 -59 -1052
-59 l-966 0 0 2410 0 2410 966 0 c877 0 969 -2 1001 -16 69 -33 67 -25 73
-457 l5 -389 24 -19 c30 -25 76 -24 101 1 20 20 21 29 18 428 -3 367 -5 410
-21 439 -30 55 -78 103 -131 131 l-51 27 -1800 2 c-990 1 -1811 -2 -1825 -6z
m1480 -2551 l0 -2410 -716 0 c-793 0 -762 -2 -804 65 -20 32 -20 44 -20 2345
0 2298 0 2313 20 2345 42 67 8 65 803 65 l717 0 0 -2410z"/>
<path d="M1395 4548 c-129 -12 -234 -61 -338 -157 -79 -73 -132 -156 -163
-258 -23 -73 -26 -95 -22 -195 7 -169 54 -281 169 -396 115 -116 258 -176 419
-176 269 0 497 174 576 439 24 81 24 229 0 310 -45 151 -151 288 -280 360
-114 64 -226 86 -361 73z m249 -186 c117 -55 213 -169 246 -292 26 -98 3 -270
-44 -333 -13 -17 -18 -15 -68 36 -29 30 -61 58 -71 64 -16 8 -16 12 -2 52 58
164 -64 341 -234 341 -81 0 -122 -15 -175 -61 -84 -74 -114 -177 -81 -273 16
-48 16 -48 -7 -64 -13 -8 -44 -38 -71 -65 -26 -27 -49 -48 -51 -46 -13 14 -41
82 -52 124 -49 183 28 384 187 485 82 54 150 71 260 67 82 -3 106 -8 163 -35z"/>
<path d="M976 2800 c-41 -13 -83 -56 -102 -106 -13 -33 -15 -70 -12 -176 4
-148 14 -179 70 -220 l33 -23 491 -3 490 -3 34 23 c69 48 75 63 78 229 3 135
1 154 -17 192 -11 23 -37 53 -58 67 l-37 25 -470 2 c-259 1 -484 -2 -500 -7z
m932 -262 l3 -118 -446 0 -445 0 0 113 c0 63 3 117 7 120 3 4 203 6 442 5
l436 -3 3 -117z"/>
<path d="M951 1993 c-18 -9 -45 -34 -60 -57 -24 -36 -26 -50 -30 -158 -4 -158
3 -200 42 -245 40 -46 82 -63 151 -63 66 0 100 14 115 47 16 34 14 47 -10 77
-18 23 -28 26 -80 26 l-59 0 0 120 0 120 443 -2 442 -3 0 -115 0 -115 -248 -5
c-231 -5 -250 -6 -263 -24 -23 -33 -18 -82 12 -105 25 -20 39 -21 274 -21 238
0 248 1 290 23 30 16 51 37 68 68 22 42 23 52 20 195 -3 148 -3 151 -32 188
-51 67 -43 66 -568 66 -419 0 -477 -2 -507 -17z"/>
<path d="M975 1208 c-43 -15 -82 -55 -101 -104 -13 -33 -15 -70 -13 -176 4
-149 16 -184 79 -225 l33 -23 487 0 487 0 33 23 c68 46 75 64 78 214 2 75 1
152 -3 170 -8 46 -68 110 -113 123 -50 14 -927 12 -967 -2z m933 -260 l3 -118
-446 0 -445 0 0 113 c0 63 3 117 7 120 3 4 203 6 442 5 l436 -3 3 -117z"/>
<path d="M2969 4307 c-102 -43 -163 -101 -208 -197 -22 -47 -26 -69 -26 -150
0 -82 4 -103 27 -152 67 -143 191 -221 350 -220 140 2 275 99 247 180 -9 27
-44 52 -73 52 -7 0 -34 -17 -60 -37 -40 -31 -57 -38 -107 -41 -165 -12 -276
128 -228 289 39 127 186 185 317 124 65 -30 72 -31 106 -4 19 15 26 30 26 55
0 69 -86 116 -225 121 -77 3 -98 0 -146 -20z"/>
<path d="M3580 4310 c-11 -11 -20 -33 -20 -48 0 -15 48 -167 108 -337 106
-307 108 -310 143 -328 29 -14 42 -15 68 -6 17 6 36 21 43 32 22 42 208 612
208 639 0 57 -68 87 -117 53 -15 -11 -41 -75 -94 -232 l-72 -217 -74 214 c-41
118 -81 222 -90 232 -22 24 -78 23 -103 -2z"/>
<path d="M2652 3117 c-31 -33 -29 -80 4 -106 26 -21 33 -21 749 -21 716 0 723
0 749 21 33 26 36 79 6 109 -20 20 -33 20 -753 20 l-734 0 -21 -23z"/>
<path d="M2652 2657 c-31 -33 -29 -80 4 -106 26 -21 33 -21 749 -21 716 0 723
0 749 21 34 27 36 79 4 109 -21 20 -31 20 -753 20 l-732 0 -21 -23z"/>
<path d="M2652 2197 c-31 -33 -29 -80 4 -106 26 -20 37 -21 401 -21 l374 0 24
25 c14 13 25 36 25 50 0 14 -11 37 -25 50 l-24 25 -379 0 -379 0 -21 -23z"/>
<path d="M2652 1737 c-31 -33 -29 -80 4 -106 26 -21 33 -21 754 -21 l727 0 21
23 c29 31 29 80 0 107 -21 20 -31 20 -753 20 l-732 0 -21 -23z"/>
<path d="M2656 1279 c-36 -28 -36 -80 0 -108 26 -21 33 -21 754 -21 l727 0 21
23 c29 31 29 80 0 107 -21 20 -31 20 -749 20 -720 0 -727 0 -753 -21z"/>
<path d="M2657 810 c-34 -27 -37 -80 -7 -110 19 -19 33 -20 403 -20 l384 0 21
23 c27 29 28 67 3 98 l-19 24 -379 3 c-373 3 -380 2 -406 -18z"/>
</g>
</svg>
